<?xml version="1.0" encoding="UTF-8" standalone="no"?>
<!DOCTYPE svg PUBLIC "-//W3C//DTD SVG 1.1//EN" "http://www.w3.org/Graphics/SVG/1.1/DTD/svg11.dtd">
<svg width="100%" height="100%" viewBox="0 0 1024 1024" version="1.1" xmlns="http://www.w3.org/2000/svg" xmlns:xlink="http://www.w3.org/1999/xlink" xml:space="preserve" xmlns:serif="http://www.serif.com/" style="fill-rule:evenodd;clip-rule:evenodd;stroke-linejoin:round;stroke-miterlimit:2;">
    <g transform="matrix(1.15918,0,0,1.15918,341.728,-44.125)">
        <path d="M-64.132,351.844C-72.471,359.533 -85.163,361.292 -95.498,355.325C-108.225,347.977 -112.593,331.679 -105.245,318.952C-117.972,326.299 -134.27,321.932 -141.618,309.205C-148.966,296.478 -144.598,280.18 -131.872,272.832C-146.567,272.832 -158.498,260.901 -158.498,246.205C-158.498,231.51 -146.567,219.579 -131.872,219.579C-144.598,212.231 -148.966,195.932 -141.618,183.205C-134.27,170.478 -117.972,166.111 -105.245,173.459C-112.593,160.732 -108.225,144.434 -95.498,137.086C-82.772,129.738 -66.473,134.105 -59.125,146.832C-59.125,132.137 -47.194,120.205 -32.498,120.205C-17.803,120.205 -5.872,132.137 -5.872,146.832C-3.927,143.464 -1.355,140.681 1.611,138.546C9.773,128.922 23.908,126.197 35.221,132.728C27.873,120.001 32.24,103.703 44.967,96.355C57.694,89.007 73.992,93.374 81.34,106.101C81.34,91.405 93.271,79.474 107.967,79.474C122.663,79.474 134.594,91.405 134.594,106.101C141.942,93.374 158.24,89.007 170.967,96.355C183.694,103.703 188.061,120.001 180.713,132.728C193.44,125.38 209.738,129.747 217.086,142.474C220.178,147.829 221.195,153.816 220.389,159.503C222.064,160.902 223.586,162.524 224.907,164.358C225.425,164.369 225.944,164.394 226.462,164.436C227.578,150.763 239.042,140 253,140C267.696,140 279.627,151.931 279.627,166.627C286.975,153.9 303.273,149.533 316,156.881C328.727,164.229 333.094,180.527 325.746,193.254C338.473,185.906 354.771,190.273 362.119,203C369.467,215.727 365.1,232.025 352.373,239.373C367.069,239.373 379,251.304 379,266C379,280.696 367.069,292.627 352.373,292.627C365.1,299.975 369.467,316.273 362.119,329C354.771,341.727 338.473,346.094 325.746,338.746C333.094,351.473 328.727,367.771 316,375.119C303.273,382.467 286.975,378.1 279.627,365.373C279.627,380.069 267.696,392 253,392C246.95,392 241.368,389.978 236.895,386.573C225.081,392.906 210.458,389.409 202.733,378.681C202.215,378.671 201.696,378.645 201.178,378.604C200.062,392.276 188.598,403.039 174.64,403.039C159.944,403.039 148.013,391.108 148.013,376.412C140.665,389.139 124.367,393.506 111.64,386.158C107.913,384.007 104.903,381.088 102.694,377.715C100.485,381.088 97.475,384.007 93.749,386.158C81.022,393.506 64.724,389.139 57.376,376.412C57.376,391.108 45.445,403.039 30.749,403.039C16.053,403.039 4.122,391.108 4.122,376.412C-3.226,389.139 -19.524,393.506 -32.251,386.158C-38.879,382.332 -43.24,376.077 -44.859,369.164C-51.14,365.863 -55.945,360.126 -58.013,353.212C-60.1,352.997 -62.155,352.537 -64.132,351.844Z" style="fill:white;"/>
    </g>
</svg>
